<svg width="32" height="32" viewBox="0 0 32 32" fill="none" xmlns="http://www.w3.org/2000/svg">
<path d="M29.8507 6.53748C28.5763 6.53748 26.4755 7.405 23.5484 9.14003C20.6412 10.8751 18.0327 12.7327 15.7228 14.7129C16.3799 16.7874 17.5647 18.975 19.2772 21.2758C20.9896 23.5766 22.4831 25.1231 23.7575 25.9151C23.4588 25.9717 22.9809 26 22.3238 26L19.7849 25.9151C19.2274 25.9151 18.4807 25.3116 17.5448 24.1047C16.6089 22.8788 15.7726 21.521 15.0358 20.0311C14.319 18.5413 13.8809 17.3626 13.7216 16.495C12.5866 17.57 11.6308 18.6355 10.8542 19.6917C10.5356 20.1254 10.1573 20.9929 9.71924 22.2942C9.30108 23.5766 9.092 24.4819 9.092 25.0099C9.092 25.5191 9.13182 25.8397 9.21147 25.9717H5.35842C5.99562 23.6521 7.11071 20.5026 8.7037 16.5233C10.3166 12.5252 11.7603 9.66808 13.0346 7.95191C13.0346 7.93305 13.2039 7.70674 13.5424 7.27299C11.8499 7.3107 10.1274 7.64074 8.37515 8.26308C6.64277 8.86657 5.6372 9.59265 5.35842 10.4413C5.33851 10.4979 5.29869 10.5262 5.23895 10.5262C5.07965 10.5262 5 10.4036 5 10.1584C5 10.1207 5.07965 9.8661 5.23895 9.39463C5.39825 8.92315 5.69693 8.43281 6.13501 7.92362C6.59299 7.41443 7.12067 7.03725 7.71804 6.79208C8.69375 6.4149 9.9084 6.22631 11.362 6.22631H18.1123C17.1167 6.94295 15.9419 8.52711 14.5878 10.9788C13.2338 13.4305 12.1286 15.6747 11.2724 17.7115C12.0888 16.6176 13.174 15.4107 14.5281 14.0905C15.902 12.7515 17.3656 11.4785 18.9188 10.2716C20.4918 9.04573 22.1047 8.02735 23.7575 7.21641C25.4301 6.40547 26.8837 6 28.1183 6C29.3728 6 30 6.13201 30 6.39604C30 6.49034 29.9502 6.53748 29.8507 6.53748Z" fill="#623CEA"/>
</svg>
