<svg width="230" height="78" viewBox="0 0 230 78" fill="none" xmlns="http://www.w3.org/2000/svg">
<path d="M72.712 18.536C69.64 18.536 64.576 20.744 57.52 25.16C50.512 29.576 44.224 34.304 38.656 39.344C40.24 44.624 43.096 50.192 47.224 56.048C51.352 61.904 54.952 65.84 58.024 67.856C57.304 68 56.152 68.072 54.568 68.072L48.448 67.856C47.104 67.856 45.304 66.32 43.048 63.248C40.792 60.128 38.776 56.672 37 52.88C35.272 49.088 34.216 46.088 33.832 43.88C31.096 46.616 28.792 49.328 26.92 52.016C26.152 53.12 25.24 55.328 24.184 58.64C23.176 61.904 22.672 64.208 22.672 65.552C22.672 66.848 22.768 67.664 22.96 68H13.672C15.208 62.096 17.896 54.08 21.736 43.952C25.624 33.776 29.104 26.504 32.176 22.136C32.176 22.088 32.584 21.512 33.4 20.408C29.32 20.504 25.168 21.344 20.944 22.928C16.768 24.464 14.344 26.312 13.672 28.472C13.624 28.616 13.528 28.688 13.384 28.688C13 28.688 12.808 28.376 12.808 27.752C12.808 27.656 13 27.008 13.384 25.808C13.768 24.608 14.488 23.36 15.544 22.064C16.648 20.768 17.92 19.808 19.36 19.184C21.712 18.224 24.64 17.744 28.144 17.744H44.416C42.016 19.568 39.184 23.6 35.92 29.84C32.656 36.08 29.992 41.792 27.928 46.976C29.896 44.192 32.512 41.12 35.776 37.76C39.088 34.352 42.616 31.112 46.36 28.04C50.152 24.92 54.04 22.328 58.024 20.264C62.056 18.2 65.56 17.168 68.536 17.168C71.56 17.168 73.072 17.504 73.072 18.176C73.072 18.416 72.952 18.536 72.712 18.536ZM88.0947 39.2L91.6947 39.272H92.4147C90.8307 40.568 88.8867 43.856 86.5827 49.136C84.2787 54.368 83.1267 58.184 83.1267 60.584C83.1267 61.832 83.5587 62.456 84.4227 62.456C87.2067 62.456 90.7587 58.352 95.0787 50.144C95.2707 49.808 95.4387 49.64 95.5827 49.64C95.8707 49.64 96.0147 50.096 96.0147 51.008C96.0147 51.872 95.7747 52.712 95.2947 53.528C89.3907 63.464 84.4467 68.432 80.4627 68.432C77.8707 68.432 76.5747 66.44 76.5747 62.456C76.5747 59.48 77.0787 56.552 78.0867 53.672C72.6147 63.368 67.5507 68.216 62.8947 68.216C59.6787 68.216 58.0707 66.008 58.0707 61.592C58.0707 58.232 58.7907 54.824 60.2307 51.368C61.7187 47.912 63.8307 44.984 66.5667 42.584C69.3027 40.136 72.3027 38.912 75.5667 38.912C77.1027 38.912 78.5427 39.272 79.8867 39.992C81.2307 40.664 82.1187 41.768 82.5507 43.304C83.0787 42.2 83.8947 41.24 84.9987 40.424C86.1027 39.608 87.1347 39.2 88.0947 39.2ZM82.1187 43.952C81.6387 42.416 80.5107 41.648 78.7347 41.648C75.5667 41.648 72.4947 43.856 69.5187 48.272C66.5427 52.64 65.0547 56.552 65.0547 60.008C65.0547 61.496 65.6307 62.24 66.7827 62.24C68.0307 62.24 69.4947 61.472 71.1747 59.936C72.8547 58.352 74.3667 56.504 75.7107 54.392C78.6867 49.688 80.8227 46.208 82.1187 43.952ZM114.998 26.744C112.646 28.376 110.006 32.552 107.078 39.272H114.35L114.422 39.344C114.422 39.584 114.158 40.016 113.63 40.64C113.102 41.216 112.646 41.504 112.262 41.504H106.07C102.278 50.912 100.382 56.96 100.382 59.648C100.382 61.472 100.958 62.384 102.11 62.384C103.79 62.384 105.758 60.944 108.014 58.064C108.542 57.44 109.238 56.384 110.102 54.896C112.31 51.344 113.462 49.568 113.558 49.568C113.846 49.568 113.99 49.952 113.99 50.72C113.942 52.544 111.95 56.096 108.014 61.376C106.718 63.104 105.158 64.712 103.334 66.2C101.51 67.688 99.8539 68.432 98.3659 68.432C95.6299 68.432 94.2619 66.512 94.2619 62.672C94.2619 59.456 95.0299 55.76 96.5659 51.584V51.512C95.6539 53.192 94.8619 54.44 94.1899 55.256C93.5659 56.072 93.2059 56.48 93.1099 56.48C92.9179 56.48 92.8219 56.192 92.8219 55.616C92.8219 54.992 93.1339 54.008 93.7579 52.664C94.4299 51.32 95.3179 49.568 96.4219 47.408C97.5739 45.248 98.5099 43.28 99.2299 41.504H94.4059C94.2619 41.504 94.1899 41.408 94.1899 41.216C94.1899 40.976 94.3579 40.592 94.6939 40.064C95.0779 39.536 95.3659 39.272 95.5579 39.272H101.03C104.486 30.968 107.99 26.816 111.542 26.816C113.606 26.816 114.758 26.792 114.998 26.744ZM140.056 39.2L143.656 39.272H144.376C142.792 40.568 140.848 43.856 138.544 49.136C136.24 54.368 135.088 58.184 135.088 60.584C135.088 61.832 135.52 62.456 136.384 62.456C139.168 62.456 142.72 58.352 147.04 50.144C147.232 49.808 147.4 49.64 147.544 49.64C147.832 49.64 147.976 50.096 147.976 51.008C147.976 51.872 147.736 52.712 147.256 53.528C141.352 63.464 136.408 68.432 132.424 68.432C129.832 68.432 128.536 66.44 128.536 62.456C128.536 59.48 129.04 56.552 130.048 53.672C124.576 63.368 119.512 68.216 114.856 68.216C111.64 68.216 110.032 66.008 110.032 61.592C110.032 58.232 110.752 54.824 112.192 51.368C113.68 47.912 115.792 44.984 118.528 42.584C121.264 40.136 124.264 38.912 127.528 38.912C129.064 38.912 130.504 39.272 131.848 39.992C133.192 40.664 134.08 41.768 134.512 43.304C135.04 42.2 135.856 41.24 136.96 40.424C138.064 39.608 139.096 39.2 140.056 39.2ZM134.08 43.952C133.6 42.416 132.472 41.648 130.696 41.648C127.528 41.648 124.456 43.856 121.48 48.272C118.504 52.64 117.016 56.552 117.016 60.008C117.016 61.496 117.592 62.24 118.744 62.24C119.992 62.24 121.456 61.472 123.136 59.936C124.816 58.352 126.328 56.504 127.672 54.392C130.648 49.688 132.784 46.208 134.08 43.952ZM176.751 53.672C175.071 56.504 173.367 59.072 171.639 61.376C167.943 66.176 164.295 68.576 160.695 68.576C158.727 68.576 157.239 67.592 156.231 65.624C155.271 63.656 154.791 61.472 154.791 59.072C154.791 54.272 155.511 51.872 156.951 51.872C159.207 51.872 161.295 51.368 163.215 50.36C165.135 49.304 166.095 47.936 166.095 46.256C166.095 44.912 165.327 44.24 163.791 44.24C160.479 44.24 156.807 47.84 152.775 55.04C152.391 55.76 151.575 57.44 150.327 60.08C149.127 62.672 148.047 64.64 147.087 65.984C146.175 67.328 145.263 68 144.351 68H139.959C141.447 65.216 143.631 59.6 146.511 51.152C149.439 42.656 151.599 36.968 152.991 34.088C153.039 33.992 153.327 33.368 153.855 32.216C154.431 31.064 154.815 30.272 155.007 29.84C155.247 29.408 155.679 28.592 156.303 27.392C156.927 26.192 157.431 25.304 157.815 24.728C158.199 24.152 158.727 23.336 159.399 22.28C160.071 21.176 160.671 20.336 161.199 19.76C161.727 19.184 162.351 18.512 163.071 17.744C163.791 16.928 164.463 16.328 165.087 15.944C166.719 14.984 168.207 14.504 169.551 14.504C172.191 14.504 173.511 15.704 173.511 18.104C173.511 21.464 171.471 25.928 167.391 31.496C163.359 37.016 158.799 42.248 153.711 47.192L152.415 50.792C154.719 47.816 157.335 45.224 160.263 43.016C163.191 40.76 165.879 39.632 168.327 39.632C169.719 39.632 170.799 39.968 171.567 40.64C172.383 41.312 172.791 42.224 172.791 43.376C172.791 46.016 171.615 48.152 169.263 49.784C166.959 51.368 164.295 52.4 161.271 52.88C161.703 57.872 162.399 60.92 163.359 62.024C163.839 62.552 164.439 62.816 165.159 62.816C165.879 62.816 166.863 62.384 168.111 61.52C169.359 60.656 170.367 59.72 171.135 58.712C171.951 57.656 172.791 56.408 173.655 54.968C174.567 53.528 175.335 52.28 175.959 51.224C176.631 50.168 177.015 49.64 177.111 49.64C177.399 49.64 177.543 50.12 177.543 51.08C177.543 51.992 177.279 52.856 176.751 53.672ZM169.695 16.376C167.007 16.376 162.303 25.016 155.583 42.296C161.727 35.096 166.047 29.024 168.543 24.08C169.983 21.488 170.703 19.352 170.703 17.672C170.703 16.808 170.367 16.376 169.695 16.376ZM201.6 38.984L205.056 39.056C205.776 39.056 206.232 39.032 206.424 38.984C205.08 39.896 203.136 43.088 200.592 48.56C198.096 53.984 196.848 57.896 196.848 60.296C196.848 61.736 197.328 62.456 198.288 62.456C198.912 62.456 199.752 62.048 200.808 61.232C201.912 60.416 202.848 59.528 203.616 58.568C204.384 57.56 205.2 56.336 206.064 54.896C206.976 53.456 207.744 52.208 208.368 51.152C209.04 50.096 209.424 49.568 209.52 49.568C209.808 49.568 209.952 50.024 209.952 50.936C209.952 51.848 209.688 52.712 209.16 53.528C203.208 63.464 198.24 68.432 194.256 68.432C191.568 68.432 190.224 66.44 190.224 62.456C190.224 61.208 190.32 60.008 190.512 58.856C186 65.24 181.704 68.432 177.624 68.432C176.424 68.432 175.44 67.928 174.672 66.92C173.952 65.912 173.592 64.424 173.592 62.456C173.592 60.488 174.288 57.248 175.68 52.736C177.072 48.176 178.776 44.432 180.792 41.504C181.272 40.784 181.776 40.352 182.304 40.208C182.88 40.016 183.936 39.92 185.472 39.92H188.928C187.728 41.552 186.432 43.76 185.04 46.544C181.872 53.12 180.288 57.944 180.288 61.016C180.288 62.84 180.936 63.752 182.232 63.752C183.576 63.752 185.16 62.48 186.984 59.936C188.808 57.392 190.752 54.104 192.816 50.072C194.928 45.992 196.152 43.688 196.488 43.16C198.264 40.376 199.968 38.984 201.6 38.984ZM219.976 64.472C219.448 64.568 218.656 65.12 217.6 66.128C216.592 67.136 215.92 67.952 215.584 68.576C213.232 67.808 212.056 66.824 212.056 65.624C212.056 64.76 212.56 63.92 213.568 63.104C214.624 62.288 215.824 61.88 217.168 61.88C219.136 61.88 220.12 62.48 220.12 63.68C220.12 63.824 220.072 64.088 219.976 64.472Z" fill="#623CEA"/>
</svg>
